<?xml version="1.0" standalone="no"?>
<!DOCTYPE svg PUBLIC "-//W3C//DTD SVG 20010904//EN"
 "http://www.w3.org/TR/2001/REC-SVG-20010904/DTD/svg10.dtd">
<svg version="1.0" xmlns="http://www.w3.org/2000/svg"
 width="566.000000pt" height="566.000000pt" viewBox="0 0 566.000000 566.000000"
 preserveAspectRatio="xMidYMid meet">
<metadata>
Created by potrace 1.11, written by Peter Selinger 2001-2013
</metadata>
<g transform="translate(0.000000,566.000000) scale(0.100000,-0.100000)"
fill="#000000" stroke="none">
<path d="M2674 5575 c-5 -13 -9 -13 -22 -3 -10 8 -13 9 -9 1 5 -8 -3 -11 -28
-9 -21 2 -35 -1 -35 -8 0 -6 -5 -4 -10 4 -9 13 -10 13 -10 0 0 -12 -2 -12 -9
-1 -6 9 -11 10 -15 2 -4 -6 -12 -11 -17 -11 -6 0 -7 5 -3 12 4 6 -3 4 -17 -5
-28 -20 -43 -22 -33 -4 6 9 5 9 -8 0 -8 -7 -18 -10 -21 -6 -4 3 -7 2 -7 -3 0
-6 -18 -10 -40 -9 -22 1 -40 -3 -40 -8 0 -5 -7 -4 -16 3 -8 8 -14 9 -13 4 4
-21 -2 -24 -22 -13 -15 8 -19 8 -15 0 4 -6 0 -11 -11 -12 -10 0 -27 -3 -38 -6
-11 -2 -30 -5 -42 -6 -13 0 -23 -5 -23 -10 0 -5 -8 -3 -17 4 -9 8 -14 9 -10 3
4 -7 0 -15 -9 -18 -23 -9 -26 -8 -18 6 4 6 -3 4 -16 -5 -18 -12 -27 -14 -37
-5 -10 8 -12 8 -8 -3 4 -11 -4 -15 -27 -17 -18 -2 -35 -6 -38 -10 -3 -5 -14
-9 -25 -9 -35 -2 -65 -15 -58 -26 4 -6 0 -8 -9 -4 -9 3 -21 0 -27 -6 -9 -9
-11 -7 -5 8 l7 20 -16 -20 c-8 -11 -20 -21 -26 -21 -6 -1 -16 -2 -22 -3 -5 0
-7 -6 -4 -11 4 -6 3 -10 -2 -9 -28 5 -63 -2 -57 -12 4 -8 -1 -9 -16 -4 -15 5
-20 4 -16 -4 4 -6 1 -11 -7 -11 -24 0 -88 -36 -80 -45 4 -4 2 -5 -5 -1 -7 4
-20 2 -29 -6 -14 -11 -16 -11 -9 2 4 8 1 7 -8 -4 -8 -10 -19 -15 -24 -12 -5 3
-12 -4 -15 -15 -4 -14 -11 -20 -21 -16 -8 3 -18 2 -22 -4 -3 -6 -12 -8 -20 -5
-8 3 -11 0 -7 -10 4 -10 0 -12 -10 -8 -10 3 -21 -2 -28 -15 -9 -14 -17 -17
-25 -10 -8 7 -15 6 -20 -2 -5 -8 -3 -10 7 -5 8 4 3 -1 -10 -12 -14 -11 -31
-17 -40 -14 -9 3 -12 1 -7 -6 4 -7 1 -12 -8 -12 -9 0 -16 -5 -16 -11 0 -5 -4
-7 -10 -4 -5 3 -10 2 -10 -4 0 -5 -9 -13 -20 -16 -11 -4 -18 -10 -15 -15 3 -4
-4 -6 -15 -3 -14 4 -20 0 -20 -11 0 -9 -5 -16 -10 -16 -6 0 -20 -9 -32 -20
-12 -10 -25 -17 -30 -14 -4 3 -8 -2 -8 -10 0 -15 -12 -21 -33 -17 -5 1 -6 -2
-3 -7 4 -7 -35 -49 -41 -44 -8 6 -23 0 -23 -9 0 -5 5 -7 12 -3 7 5 8 3 3 -5
-4 -7 -16 -11 -26 -8 -11 3 -17 1 -13 -4 3 -5 0 -9 -6 -9 -6 0 -8 -4 -5 -10 3
-5 0 -10 -7 -10 -7 0 -19 -9 -26 -20 -7 -12 -18 -17 -27 -13 -9 3 -15 2 -14
-3 4 -22 -3 -32 -23 -37 -12 -4 -19 -9 -16 -12 11 -11 -36 -52 -49 -43 -8 7
-10 3 -6 -11 5 -19 -4 -26 -30 -22 -4 0 -6 -3 -5 -8 2 -5 -6 -17 -17 -26 -11
-9 -13 -13 -5 -9 8 4 -2 -10 -22 -30 -21 -21 -42 -35 -48 -31 -6 3 -7 0 -4 -9
4 -9 0 -18 -9 -22 -9 -3 -13 -12 -10 -21 4 -9 2 -14 -3 -11 -5 3 -20 -6 -34
-20 -16 -16 -18 -21 -5 -12 20 14 20 14 1 -7 -10 -13 -23 -20 -28 -17 -4 3 -8
2 -7 -3 4 -21 -2 -33 -17 -33 -8 0 -12 -5 -9 -10 8 -12 -20 -42 -30 -32 -4 4
-6 3 -5 -3 5 -21 0 -36 -10 -30 -6 4 -10 3 -9 -2 4 -21 -2 -34 -13 -27 -6 4
-8 3 -4 -4 3 -6 -5 -23 -19 -38 -14 -15 -25 -35 -25 -45 0 -10 -9 -23 -21 -29
-11 -7 -18 -14 -15 -17 3 -3 -2 -12 -12 -20 -11 -10 -12 -12 -2 -8 8 4 6 -1
-5 -10 -11 -9 -20 -22 -20 -30 0 -8 -9 -22 -20 -30 -11 -9 -14 -14 -8 -10 19
9 16 -3 -7 -32 -11 -14 -17 -29 -14 -34 3 -5 -2 -9 -10 -9 -10 0 -13 -6 -10
-15 4 -8 1 -15 -6 -15 -6 0 -8 -4 -5 -10 3 -5 1 -10 -4 -10 -6 0 -10 -3 -10
-7 3 -19 -2 -34 -10 -29 -4 3 -7 -6 -5 -19 1 -14 -1 -25 -6 -25 -4 0 -11 -11
-14 -25 -4 -14 -10 -24 -14 -21 -4 2 -8 -9 -8 -26 -1 -17 -5 -33 -10 -37 -5
-3 -9 -12 -10 -18 -2 -30 -5 -34 -16 -27 -7 4 -8 3 -4 -5 4 -6 2 -19 -6 -28
-7 -10 -8 -14 -1 -10 8 5 8 1 0 -17 -7 -13 -14 -23 -17 -21 -3 2 -6 -7 -6 -18
-4 -46 -9 -67 -17 -67 -4 0 -7 -6 -6 -12 1 -7 1 -22 0 -33 -1 -17 -3 -18 -11
-5 -6 9 -10 10 -10 3 0 -6 4 -14 10 -18 5 -3 7 -12 4 -20 -4 -8 -10 -12 -15
-9 -5 3 -6 -1 -3 -9 3 -8 1 -18 -4 -21 -6 -3 -8 -15 -5 -26 3 -11 0 -26 -6
-33 -6 -8 -8 -17 -4 -20 3 -4 0 -14 -8 -24 -12 -15 -12 -16 1 -8 12 6 12 5 3
-5 -6 -7 -9 -20 -5 -29 5 -14 4 -14 -14 -2 -18 14 -18 14 -2 -4 16 -17 16 -19
0 -32 -9 -8 -11 -12 -4 -8 10 5 12 -1 8 -22 -2 -15 -5 -28 -6 -28 -1 0 -3 -11
-6 -24 -2 -14 -10 -31 -17 -40 -7 -9 -8 -12 -1 -8 13 8 14 -50 1 -70 -5 -8 -3
-13 5 -13 8 0 9 -3 2 -8 -5 -4 -9 -26 -8 -49 1 -26 -3 -43 -10 -43 -6 0 -4 -5
4 -10 8 -5 11 -10 5 -10 -6 0 -9 -33 -7 -86 3 -70 1 -85 -10 -78 -10 6 -11 5
-2 -7 14 -18 24 -69 13 -69 -5 0 -7 -6 -5 -12 15 -47 16 -69 4 -62 -10 6 -10
4 -2 -7 15 -20 26 -51 14 -44 -5 3 -8 -4 -7 -15 1 -11 6 -20 12 -20 5 0 3 -5
-5 -10 -11 -7 -12 -10 -1 -10 9 0 12 -12 10 -44 -2 -24 -1 -42 2 -40 12 7 17
-34 6 -45 -8 -8 -8 -11 0 -11 6 0 13 -9 16 -20 3 -11 0 -20 -5 -20 -7 0 -7 -4
-1 -12 6 -7 9 -21 8 -30 -2 -10 1 -18 7 -18 6 0 8 -9 5 -20 -3 -11 -1 -23 5
-26 5 -3 8 -15 5 -25 -3 -10 -1 -22 4 -25 5 -3 7 -9 4 -14 -3 -5 -1 -11 5 -15
6 -4 8 -11 5 -16 -4 -5 -2 -9 3 -9 5 0 8 -11 7 -24 -2 -13 3 -37 11 -52 8 -15
12 -29 9 -32 -3 -3 0 -11 7 -19 6 -7 8 -16 4 -20 -3 -3 1 -15 11 -25 13 -14
13 -18 2 -19 -8 0 -6 -4 6 -9 11 -5 14 -9 8 -9 -7 -1 -13 -6 -13 -12 0 -5 5
-7 12 -3 8 5 9 2 5 -9 -3 -10 -2 -17 4 -17 6 0 8 -9 4 -20 -4 -11 -3 -20 2
-19 20 3 27 -2 13 -11 -11 -7 -11 -10 -2 -10 7 0 10 -4 7 -10 -3 -5 -2 -10 3
-10 12 0 36 -75 28 -89 -5 -7 -1 -9 8 -5 16 6 24 -20 9 -29 -5 -2 -2 -2 4 -1
12 3 17 -9 14 -28 0 -5 4 -8 10 -8 5 0 7 -4 4 -10 -3 -5 -1 -10 4 -10 6 0 11
-9 11 -20 0 -11 5 -20 10 -20 6 0 10 -7 10 -16 0 -8 6 -22 14 -30 8 -8 13 -23
11 -34 -2 -11 0 -18 6 -15 5 4 9 1 9 -5 0 -6 11 -23 25 -38 15 -15 24 -35 21
-44 -3 -12 2 -18 12 -18 8 0 13 -3 9 -6 -3 -4 1 -13 9 -21 8 -8 11 -19 8 -25
-4 -7 -2 -8 4 -4 11 6 14 1 11 -20 0 -3 10 -15 24 -28 13 -12 23 -30 21 -39
-1 -10 2 -14 9 -10 6 4 8 0 4 -10 -4 -11 -2 -14 9 -10 7 3 14 0 14 -7 0 -6 10
-21 22 -32 13 -11 17 -16 9 -12 -9 5 -12 3 -7 -4 4 -7 15 -12 24 -13 10 0 12
-3 5 -5 -8 -4 1 -18 23 -40 19 -19 31 -40 28 -46 -4 -7 -2 -8 4 -4 7 4 12 1
12 -9 0 -9 5 -13 10 -10 6 3 10 1 10 -5 0 -15 25 -40 41 -40 7 0 10 -3 6 -6
-3 -4 12 -24 33 -44 22 -21 40 -44 40 -50 0 -6 5 -8 12 -4 8 5 9 2 5 -9 -4
-10 -2 -16 5 -14 7 1 12 -5 13 -13 0 -8 6 -16 13 -16 6 -1 17 -2 23 -3 5 0 8
-4 6 -9 -3 -4 1 -13 9 -20 8 -7 14 -9 14 -5 0 4 11 -4 24 -20 13 -15 29 -27
36 -27 7 0 10 -7 6 -16 -4 -10 -2 -13 6 -8 6 4 17 -1 25 -11 7 -11 13 -16 13
-12 0 5 6 2 14 -5 8 -7 11 -17 8 -22 -3 -5 0 -6 5 -3 6 4 20 -1 31 -11 49 -41
58 -48 67 -50 6 -1 10 -8 10 -14 0 -7 7 -13 15 -14 33 -1 93 -41 84 -55 -2 -4
6 -5 18 -1 14 3 19 2 14 -6 -5 -8 0 -12 13 -12 12 0 21 -4 21 -10 0 -5 7 -10
16 -10 9 0 12 -5 8 -12 -4 -7 -3 -8 4 -4 15 9 54 -12 46 -25 -4 -7 3 -6 16 1
14 7 20 8 16 1 -4 -6 4 -13 19 -17 14 -3 25 -11 25 -18 0 -6 5 -4 11 4 9 12
10 11 6 -6 -4 -17 0 -20 19 -16 13 2 24 -1 24 -7 0 -5 6 -8 14 -5 8 3 17 0 21
-5 3 -6 10 -9 15 -6 5 3 15 -3 21 -14 7 -11 19 -17 27 -13 10 3 13 1 8 -6 -4
-7 1 -10 13 -7 11 2 22 -3 25 -11 4 -11 13 -13 27 -9 13 5 19 3 15 -3 -3 -5 1
-13 10 -16 9 -3 12 -2 8 5 -3 6 3 5 14 -2 12 -7 19 -16 17 -20 -3 -3 7 -5 20
-3 14 1 27 -2 31 -7 3 -5 10 -6 16 -3 7 4 8 2 4 -4 -5 -8 2 -12 18 -12 14 0
26 -5 26 -11 0 -5 5 -7 10 -4 6 3 17 -1 26 -10 11 -10 20 -13 26 -7 6 6 20 5
36 -4 15 -8 35 -14 44 -14 9 0 20 -5 23 -11 4 -6 13 -8 21 -5 8 3 14 2 14 -2
0 -4 12 -9 26 -10 15 -1 34 -8 42 -15 13 -10 14 -9 7 3 -5 9 1 7 15 -5 13 -11
20 -15 17 -8 -8 14 31 6 52 -11 12 -9 13 -8 6 4 -7 12 -6 13 6 5 8 -6 28 -12
44 -14 17 -2 35 -6 40 -10 6 -4 21 -6 35 -5 14 1 30 -2 37 -8 7 -6 14 -5 18 2
5 8 11 8 21 -1 8 -6 14 -8 14 -4 0 4 6 2 14 -4 10 -9 16 -9 21 -1 5 8 12 5 21
-7 13 -17 14 -17 8 0 -5 13 -2 16 10 11 9 -3 13 -11 9 -17 -4 -6 -1 -7 7 -2
18 11 60 13 60 2 0 -4 8 -3 19 2 10 6 21 8 24 5 3 -3 45 -7 94 -8 49 -1 95 -6
102 -11 10 -6 12 -4 6 5 -6 9 2 11 34 8 22 -2 41 -1 41 3 0 3 14 4 30 1 17 -2
38 2 47 9 12 10 14 10 9 2 -4 -7 -3 -13 3 -13 5 0 12 6 14 13 4 9 6 9 6 0 1
-9 8 -10 27 -3 33 13 54 13 34 0 -9 -6 -10 -10 -3 -10 7 0 17 8 22 18 6 10 11
12 11 4 0 -10 5 -10 20 -2 11 6 20 8 20 5 0 -3 9 -1 20 5 15 8 20 8 20 -1 0
-8 4 -8 15 1 8 6 19 9 24 6 5 -4 12 -2 16 4 4 6 10 8 15 5 5 -3 11 -1 15 5 4
7 13 6 27 -1 16 -9 19 -8 13 2 -6 9 -3 11 8 6 10 -4 17 -2 17 5 0 7 6 6 16 -2
12 -11 15 -11 12 1 -2 9 4 13 15 11 9 -2 17 1 17 5 0 8 9 9 77 15 17 2 29 6
27 9 -2 4 3 10 12 13 8 3 12 2 9 -3 -3 -5 8 -3 25 5 16 9 35 12 41 8 8 -5 9
-3 5 5 -5 8 -3 11 5 10 8 -2 24 2 37 9 17 10 22 10 22 1 0 -7 8 -3 18 9 14 16
22 18 30 10 8 -8 13 -7 18 6 5 14 9 14 22 4 12 -10 14 -10 8 0 -6 11 5 17 27
13 4 0 7 4 7 10 0 6 7 8 16 5 10 -4 13 -2 8 6 -5 7 -2 9 9 5 9 -3 18 1 21 10
4 9 14 13 26 10 13 -3 18 -1 13 6 -4 7 0 8 11 4 10 -4 15 -3 11 3 -3 5 6 12
20 16 14 3 25 10 25 16 0 5 4 7 9 3 5 -3 12 -1 16 5 4 6 11 8 16 5 5 -4 9 -1
9 5 0 7 7 9 17 6 10 -4 14 -4 10 0 -9 9 30 37 42 30 5 -3 11 1 15 9 3 8 12 15
21 15 8 0 15 5 15 11 0 6 8 9 19 6 12 -3 18 1 17 10 0 9 9 19 22 24 17 6 21 6
17 -4 -4 -6 2 -2 12 11 10 13 28 24 40 25 12 0 19 5 17 9 -3 4 0 8 6 8 6 0 8
5 4 12 -4 6 -3 8 4 4 6 -3 17 -1 24 6 49 45 70 61 64 48 -4 -8 2 -5 13 8 12
14 25 20 32 16 8 -5 9 -3 4 6 -6 10 -4 12 8 7 11 -4 14 -2 10 8 -5 14 40 41
59 37 5 -1 7 1 7 6 -4 22 4 30 26 27 18 -1 22 1 16 9 -12 15 24 40 42 30 7 -4
9 -4 5 1 -12 13 12 47 29 41 12 -5 14 -1 10 14 -3 10 -2 19 2 18 20 -2 31 4
31 18 0 8 5 12 10 9 6 -3 10 1 10 10 0 9 5 13 11 10 6 -4 13 2 16 14 3 11 9
18 14 15 5 -3 9 2 9 11 0 10 7 15 18 13 11 -2 16 3 14 15 -2 10 3 16 10 15 7
-2 12 3 11 10 -2 6 3 12 11 12 7 0 20 8 27 17 12 16 12 17 -1 8 -9 -5 -4 1 10
14 14 13 19 20 11 16 -10 -6 -12 -4 -7 4 5 7 15 10 23 7 8 -3 12 -2 9 3 -8 12
29 52 39 43 5 -4 5 -2 2 5 -4 6 -1 18 7 26 8 8 12 18 8 22 -4 5 1 5 10 2 10
-3 17 -3 17 1 -4 25 4 42 22 47 17 6 19 9 8 16 -11 7 -11 9 2 9 10 0 16 7 15
18 0 10 6 16 16 16 10 -1 16 2 13 6 -3 5 1 14 8 22 8 7 12 19 9 26 -2 7 2 11
9 10 12 -3 14 1 18 33 0 6 7 9 15 6 10 -4 12 0 9 14 -3 11 1 21 10 25 9 3 13
12 10 20 -3 8 0 14 7 14 6 0 9 4 6 9 -3 5 0 11 8 14 8 3 19 22 26 41 6 20 16
34 21 31 5 -4 6 1 3 9 -4 10 -1 16 7 16 7 0 9 3 6 6 -4 4 2 19 12 33 10 14 16
32 14 38 -3 7 2 16 11 19 9 3 14 10 11 14 -3 5 -1 11 5 15 6 4 8 11 5 16 -4 5
-1 9 4 9 6 0 10 3 10 8 -3 20 2 32 12 26 8 -4 9 0 4 15 -5 16 -2 21 12 21 14
0 15 2 4 9 -9 6 -10 11 -2 15 6 4 11 16 11 26 0 30 22 70 34 63 8 -4 8 -2 0 6
-12 13 3 61 19 61 4 0 3 10 -4 21 -8 15 -8 19 0 15 11 -7 15 3 13 42 -1 12 3
22 8 22 6 0 10 11 10 25 0 14 5 25 10 25 7 0 8 6 2 17 -7 11 -5 21 4 31 8 7
12 18 9 23 -4 5 0 9 7 9 10 0 9 3 -2 10 -12 7 -12 12 4 28 11 13 14 22 7 27
-7 4 -8 12 -1 24 5 10 6 21 3 25 -3 3 0 6 8 6 11 0 11 2 -1 10 -8 5 -10 10 -3
10 6 0 10 13 9 30 -2 21 2 30 13 31 9 0 11 3 5 5 -7 3 -9 21 -6 47 3 23 5 53
6 67 1 14 8 31 16 38 8 8 10 11 3 8 -13 -7 -13 70 0 91 4 6 3 14 -3 18 -7 4
-7 12 0 25 13 25 13 33 -2 24 -9 -5 -9 -2 1 9 7 9 10 17 6 17 -4 0 -1 8 6 17
10 11 10 14 2 9 -7 -4 -13 -2 -13 3 0 6 5 11 10 11 6 0 10 5 10 11 0 5 -4 7
-10 4 -14 -9 -12 8 3 24 10 11 10 13 0 7 -8 -5 -13 -1 -13 9 0 10 5 13 12 9 7
-5 8 -3 2 7 -5 8 -7 22 -5 33 2 12 -1 16 -9 11 -9 -6 -9 -2 0 15 6 12 8 29 4
38 -11 26 -11 56 0 71 8 11 8 13 -1 7 -8 -4 -13 -2 -13 6 0 8 6 20 13 27 10
10 9 12 -3 9 -8 -2 -15 4 -15 12 0 8 -7 18 -15 22 -11 5 -10 7 5 7 17 1 18 3
5 12 -12 9 -10 10 8 6 13 -3 22 -3 19 0 -3 3 7 17 21 31 15 15 28 29 28 32 4
22 19 56 28 62 7 5 7 8 -3 8 -9 0 -10 4 -4 13 19 24 17 126 -3 159 -5 7 -2 8
7 3 11 -6 12 -5 2 6 -7 7 -13 28 -13 45 0 18 -4 35 -10 39 -5 3 -7 12 -3 20 3
9 -1 15 -8 15 -12 0 -12 2 -1 9 11 7 11 9 -2 14 -9 4 -16 13 -16 22 0 8 -4 15
-10 15 -5 0 -10 6 -10 13 0 7 -9 18 -21 25 -13 8 -18 19 -15 29 5 13 4 14 -9
3 -12 -10 -15 -10 -15 4 0 10 -4 14 -10 11 -12 -7 -62 24 -55 36 3 4 -3 6 -13
4 -10 -2 -19 2 -19 8 -1 24 -8 42 -23 55 -13 12 -13 13 3 8 17 -5 16 -3 -2 20
-12 15 -21 33 -21 40 0 8 -6 14 -12 14 -9 0 -8 4 2 10 10 6 11 10 3 10 -7 0
-13 6 -13 14 0 8 -13 39 -29 69 -16 31 -27 58 -23 61 3 3 0 6 -7 6 -7 0 -9 5
-6 10 3 6 1 10 -4 10 -6 0 -11 9 -11 19 0 10 -7 22 -16 25 -8 3 -13 10 -9 16
3 5 -3 20 -14 32 -19 19 -26 38 -22 61 0 4 -2 6 -6 6 -20 -3 -26 2 -13 11 13
8 13 10 -2 10 -15 0 -35 34 -30 53 1 4 -4 6 -10 5 -7 -2 -14 7 -16 20 -2 12
-9 22 -17 22 -7 0 -16 12 -19 26 -4 14 -16 35 -27 47 -11 12 -17 27 -15 33 2
6 -3 11 -12 10 -11 -1 -16 5 -14 18 2 11 -1 15 -7 11 -6 -3 -11 1 -11 10 0 9
-4 13 -10 10 -9 -6 -14 8 -11 28 0 4 -6 7 -14 7 -8 0 -14 3 -14 8 3 18 -2 33
-9 28 -5 -3 -16 4 -25 15 -12 13 -13 19 -4 20 6 0 2 4 -10 9 -13 5 -23 17 -23
25 0 9 -4 14 -9 10 -6 -3 -15 4 -21 15 -6 11 -16 17 -22 14 -7 -4 -8 -3 -4 4
4 7 2 12 -4 12 -7 0 -10 7 -7 14 4 11 1 13 -10 9 -11 -4 -14 -2 -9 5 4 7 3 12
-3 12 -5 0 -43 33 -85 74 -42 41 -76 71 -76 68 0 -3 -8 5 -19 16 -10 12 -22
22 -27 22 -5 0 -16 9 -24 20 -8 11 -18 20 -23 20 -4 0 -13 5 -20 10 -46 39
-61 50 -69 50 -5 0 -6 5 -2 12 5 8 2 9 -9 5 -11 -4 -17 -1 -17 8 0 8 -5 14
-12 13 -7 -2 -12 2 -13 9 0 6 -4 15 -9 20 -5 4 -6 3 -2 -4 3 -6 2 -14 -4 -18
-5 -3 -10 1 -10 9 0 8 -5 18 -12 22 -7 5 -8 3 -3 -5 5 -9 1 -9 -14 1 -12 7
-21 16 -21 20 0 5 -7 8 -16 8 -9 0 -25 10 -35 22 -13 14 -19 17 -19 7 -1 -10
-4 -9 -11 4 -5 9 -17 17 -24 17 -8 0 -15 5 -15 11 0 5 -4 7 -10 4 -5 -3 -10
-1 -10 5 0 7 -7 10 -14 7 -11 -4 -13 -1 -9 10 4 11 3 14 -6 9 -6 -4 -18 -2
-26 4 -8 7 -15 9 -15 5 0 -4 -9 3 -20 16 -10 13 -19 20 -20 15 0 -5 -8 -2 -17
5 -11 9 -14 10 -9 2 5 -9 2 -11 -8 -7 -9 3 -16 12 -16 19 0 8 -8 11 -20 8 -11
-3 -20 0 -20 6 0 6 -8 11 -17 11 -10 0 -26 7 -36 15 -11 7 -26 11 -35 8 -10
-4 -13 -2 -8 5 5 8 -1 12 -15 12 -12 0 -28 8 -36 18 -8 9 -12 11 -8 5 4 -9 1
-11 -9 -7 -9 3 -13 11 -9 18 4 6 -1 5 -10 -3 -11 -9 -17 -10 -17 -2 0 6 -7 11
-16 11 -8 0 -12 5 -8 11 4 7 -1 7 -16 -1 -15 -8 -20 -8 -16 -1 5 7 -3 11 -19
11 -14 0 -24 4 -21 8 3 5 -8 9 -24 10 -33 1 -53 10 -46 21 3 4 -8 5 -25 3 -16
-2 -29 0 -29 6 0 6 -9 9 -20 7 -14 -3 -20 2 -20 13 0 14 -2 15 -9 3 -8 -13
-12 -13 -27 0 -16 12 -17 12 -9 -1 7 -12 6 -13 -7 -3 -8 7 -18 10 -21 6 -4 -3
-7 -1 -7 6 0 7 -5 9 -10 6 -6 -4 -18 -1 -27 7 -9 7 -14 8 -10 2 7 -12 -89 6
-114 21 -8 5 -10 4 -5 -3 10 -17 0 -15 -18 4 -9 8 -16 12 -16 7 0 -5 -18 -7
-40 -5 -22 2 -40 9 -40 16 0 6 -5 4 -10 -4 -5 -8 -10 -10 -10 -4 0 6 -7 11
-15 11 -8 0 -15 -5 -15 -11 0 -6 -4 -5 -9 3 -5 8 -16 11 -25 8 -9 -4 -20 1
-25 11 -9 15 -10 15 -11 -3 0 -17 -2 -17 -10 -5 -5 8 -10 10 -10 4 0 -7 -10
-9 -25 -6 -15 2 -22 9 -18 16 3 6 0 6 -8 -1 -15 -14 -43 -18 -35 -5 3 5 -1 9
-9 9 -8 0 -12 -4 -9 -8 2 -4 -5 -7 -16 -6 -11 1 -20 6 -20 12 0 5 -5 3 -10 -5
-9 -13 -10 -13 -10 0 0 9 -3 11 -8 5 -11 -15 -55 -18 -46 -2 5 7 1 7 -10 -2
-15 -13 -19 -13 -27 0 -7 11 -9 10 -9 -5 0 -15 -3 -16 -15 -6 -11 9 -15 9 -15
1 0 -7 -5 -9 -10 -6 -6 4 -8 11 -5 16 4 5 4 9 0 9 -3 0 -8 -7 -11 -15z"/>
<path d="M416 1427 c3 -10 9 -15 12 -12 3 3 0 11 -7 18 -10 9 -11 8 -5 -6z"/>
</g>
</svg>
